PathFileType	4	(X/Y/Z)	C:/Users/beibeiliu/ov580/test_trc/User2\sequence.4_training_dense_right.trc
DataRate	CameraRate	NumFrames	NumMarkers	Units	OrigDataRate	OrigDataStartFrame	OrigNumFrames
120	120	24	19	mm	120	223	296
Frame#	Time	ThumbCMC			ThumbMCP			ThumbIP			ThumbTip			IndexMCP			IndexPIP			IndexTip			MiddleMCP			MiddlePIP			MiddleTip			RingMCP			RingPIP			RingTip			PinkyMCP			PinkyPIP			PinkyTip			BackHand1			BackHand2			BackHand3	
		X0	Y0	Z0	X1	Y1	Z1	X2	Y2	Z2	X3	Y3	Z3	X4	Y4	Z4	X5	Y5	Z5	X6	Y6	Z6	X7	Y7	Z7	X8	Y8	Z8	X9	Y9	Z9	X10	Y10	Z10	X11	Y11	Z11	X12	Y12	Z12	X13	Y13	Z13	X14	Y14	Z14	X15	Y15	Z15	X16	Y16	Z16	X17	Y17	Z17	X18	Y18	Z18	
222	1.85	79.4294	27.3577	63.2917	47.3708	15.9101	53.1659	19.5319	-5.71735	33.5729	11.4778	-31.1337	27.9662	86.7943	-5.15726	-12.514	77.7302	-13.8913	-37.2345	68.596	-18.6555	-59.1633	76.6068	-37.1626	-1.12087	37.2496	-43.5725	1.82462	26.7842	-28.7725	34.5083	65.7535	-55.3461	18.4746	37.1822	-53.686	30.4161	34.5674	-27.8667	58.2222	67.1374	-67.5866	40.363	39.735	-52.9872	51.507	43.1722	-28.9686	66.8643	121.153	-33.9806	53.4161	131.692	-17.5746	78.8972	118.364	8.21799	50.5732	
223	1.85833	84.4665	24.6144	63.2397	49.7495	13.3898	46.4691	27.1343	-4.49898	34.4926	16.7373	-35.3349	22.2893	94.4799	-6.14814	-11.5768	87.2952	-11.2874	-37.6371	78.5636	-24.7922	-63.0946	78.7122	-40.1049	-3.64217	41.8996	-46.874	2.22748	31.0289	-30.7147	32.466	68.7273	-59.157	18.1241	39.4049	-52.4593	27.5529	35.2693	-28.9119	55.7347	75.7856	-66.1798	41.0185	42.2468	-52.6734	48.8065	47.5573	-28.3026	69.7972	123.948	-32.6346	53.1335	135.977	-18.3916	79.819	124.926	7.06945	53.6579	
224	1.86667	84.5566	25.8592	62.5615	51.8747	9.63947	47.8237	27.4454	-8.87818	34.0322	16.2727	-35.1324	25.4559	96.1859	-10.3927	-11.3279	88.6974	-17.0215	-36.6073	80.5413	-27.2104	-63.703	80.8029	-41.7912	-2.66566	42.7007	-51.0307	3.92505	30.8161	-31.6765	34.3211	74.6101	-60.2811	21.2518	39.5097	-56.9374	28.937	35.2344	-30.4803	53.9647	72.9402	-68.994	41.0276	43.1579	-54.9494	48.5548	45.2231	-31.1741	67.4998	122.596	-38.0643	53.1051	133.591	-21.5222	82.3146	125.616	2.95473	54.694	
225	1.875	80.7387	23.0606	64.7524	46.5947	9.81358	55.187	22.2834	-12.4324	39.3789	12.7735	-38.7329	32.6004	90.6755	-13.4672	-8.19309	79.8926	-16.3985	-35.8358	71.1106	-31.2071	-57.1793	74.4095	-44.5202	0.9672	38.1038	-49.499	5.23204	26.4661	-35.9766	38.1542	66.2183	-63.3765	22.918	37.995	-57.3578	30.9034	30.5518	-38.7888	60.8712	68.8231	-69.0823	41.9401	40.5491	-61.0697	57.4918	44.545	-30.6215	74.8842	117.947	-36.0172	52.5236	133.252	-24.448	83.062	122.539	3.97847	55.6978	
226	1.88333	78.6158	20.8821	73.8187	39.2453	5.81751	61.5459	14.9316	-13.5978	52.5638	4.45862	-42.3777	43.7696	77.0531	-11.5271	-1.5261	64.2831	-22.9211	-26.6142	52.7669	-33.8538	-46.9942	64.5137	-49.3322	7.35888	28.7771	-52.3527	13.9981	20.8222	-39.6012	49.6963	57.8828	-63.4672	29.1054	32.0713	-62.1483	41.2449	26.2298	-39.8466	68.0564	67.3735	-71.6532	50.7239	37.4104	-61.3143	63.1339	38.8052	-35.8764	81.8654	115.974	-40.8235	54.3804	130.891	-20.8772	83.4864	114.64	2.43265	56.4739	
227	1.89167	74.3145	18.4899	80.2149	33.868	5.45739	75.4424	9.82683	-19.174	66.6427	0.645002	-42.2787	63.1053	61.5866	-18.4988	3.05539	43.424	-25.1867	-18.9523	28.4593	-35.6418	-35.985	54.0945	-51.3624	15.8571	19.3133	-56.0413	25.8053	13.0366	-43.6429	61.9347	49.5052	-65.5262	38.8465	23.1127	-62.923	53.8362	22.9953	-41.4543	85.5983	58.6459	-74.0405	58.8159	31.6049	-62.3767	76.6315	39.2358	-38.5753	95.0065	108.863	-40.9331	58.1061	128.822	-22.4087	84.2214	111.168	-1.02306	61.3226	
228	1.9	65.3327	18.7173	83.4706	30.139	5.49581	86.3046	5.51083	-20.6718	79.5912	-5.41735	-46.5687	76.0564	49.9061	-18.7992	14.3142	31.0619	-24.4098	-4.42711	7.29385	-33.5702	-24.3587	46.6448	-51.0682	26.6395	11.6798	-58.3538	38.102	5.91462	-42.6555	74.833	45.2472	-64.4815	47.9524	17.4317	-65.9897	69.7856	20.3718	-41.2431	97.1503	55.5366	-78.081	69.9019	29.2353	-67.9587	85.9867	35.7414	-37.5641	101.71	104.279	-39.7439	62.22	124.47	-23.3873	83.6679	101.614	0.384584	59.4737	
229	1.90833	64.8913	18.4892	90.7288	30.045	4.81523	95.5239	0.916852	-18.3124	90.5788	-9.86726	-43.5273	89.2194	41.0268	-18.4167	20.1125	19.9958	-24.7893	4.19312	-5.15318	-37.4398	-12.8948	37.1832	-47.0658	32.264	2.71134	-58.8083	50.9603	4.50319	-41.9925	85.8471	34.6582	-66.6192	54.5693	12.2246	-65.2353	78.3257	17.4607	-45.7677	104.009	46.6303	-79.1758	75.6577	25.1892	-63.0097	94.2317	37.5179	-38.2269	109.59	96.7083	-45.1433	63.5369	122.547	-24.5283	85.7919	98.2009	-0.8291	63.0855	
230	1.91667	65.8811	12.3208	91.115	28.9793	0.523111	96.3902	1.19334	-19.2158	95.4678	-8.55317	-47.3621	91.1763	37.6781	-18.273	23.1542	16.7949	-26.379	9.55729	-7.0726	-33.2146	-5.96898	34.9137	-52.3651	36.7507	-0.702615	-57.628	54.7948	1.63796	-43.6072	88.1506	34.4763	-66.1325	57.9955	10.7543	-65.9873	83.3711	19.443	-41.6279	108.194	43.8936	-78.951	77.6899	23.8385	-66.3232	100.427	35.3932	-43.5057	111.906	97.6985	-46.7621	68.0571	122.747	-30.8745	87.449	96.3129	-3.17942	66.6078	
231	1.925	66.731	14.2344	90.5373	28.1157	1.89231	93.2358	-0.51012	-16.5123	91.7746	-8.51151	-45.8351	88.2795	41.1206	-19.3634	21.028	17.0681	-26.5153	2.29421	-3.14121	-38.2094	-12.0016	35.5113	-56.0628	36.7674	1.01005	-59.6041	54.1532	4.02241	-46.5859	88.2054	34.9002	-68.4988	57.5982	11.2374	-67.7278	77.7987	18.9328	-47.5965	106.144	47.0704	-83.9987	77.9503	23.3614	-68.5135	99.9982	34.019	-42.3474	110.289	97.4044	-49.1635	67.4067	121.407	-35.8659	85.4672	98.7755	-11.2329	65.2568	
232	1.93333	74.7698	9.84939	87.8298	35.9083	0.497624	87.7338	3.93025	-20.0832	80.2164	-8.30101	-45.9974	78.4507	51.3535	-26.7753	13.6435	31.2716	-33.0574	-4.70118	12.931	-41.8274	-21.2366	39.7979	-59.7816	30.4226	8.14057	-62.5555	43.4873	8.59011	-44.4699	83.6337	38.6511	-75.4238	53.7009	13.1206	-66.3553	73.0045	20.9696	-44.3226	98.3298	47.8228	-83.8314	71.8457	23.443	-68.4255	91.3482	34.6562	-46.5039	103.575	100.039	-56.566	66.526	126.521	-40.2357	91.4876	104.937	-10.6589	64.9889	
233	1.94167	81.1359	7.10126	81.6821	41.3939	0.841098	75.0074	11.4338	-20.3909	64.7219	-2.90823	-42.9683	62.8973	69.2655	-30.6315	10.539	52.2769	-39.1418	-15.8166	36.6271	-47.9534	-31.4878	54.5286	-59.5245	21.2229	18.6032	-63.1195	30.6516	12.3874	-43.8492	67.574	48.8139	-76.9656	45.4728	21.1308	-73.1305	60.5278	24.53	-47.429	88.6951	56.3271	-86.9107	68.0159	26.7311	-71.3132	82.6019	36.5841	-49.1042	97.8366	109.732	-59.1074	70.2319	128.554	-44.4491	90.0822	114.051	-20.1266	66.0321	
234	1.95	89.2355	4.38224	76.4758	52.3854	-4.15596	62.0568	22.6533	-21.916	48.3895	12.4015	-46.446	45.3124	88.5285	-41.335	2.61242	77.4046	-48.6028	-21.2168	63.7391	-54.6736	-45.2016	71.8407	-67.2123	17.3443	34.8655	-68.4634	17.3383	23.5102	-47.2028	52.709	61.9193	-80.4626	37.1527	31.0829	-76.6147	46.4547	31.3651	-46.3508	73.6215	62.6225	-92.2718	62.3419	35.3319	-75.8169	66.2381	40.99	-50.3952	82.5467	116.905	-63.6245	69.2517	132.89	-47.9258	94.3435	122.197	-25.1342	65.806	
235	1.95833	95.6096	0.355954	68.3564	61.7595	-4.50061	53.6201	33.9993	-24.2549	34.5351	21.047	-47.5774	29.2185	105.292	-41.3043	0.791403	99.3887	-50.0656	-26.6417	91.6732	-64.0974	-45.3441	86.8144	-70.9184	11.5024	47.9159	-72.4517	10.0615	34.766	-53.2372	38.6132	76.1351	-84.2849	33.7602	43.4964	-81.1866	36.9076	38.4757	-53.5951	60.9314	74.9654	-91.9384	54.1931	41.3541	-78.6719	60.1632	46.817	-54.9876	74.8168	125.018	-62.4325	69.5814	136.985	-49.2693	96.846	131.727	-27.2229	64.9775	
236	1.96667	101.405	-0.204758	66.4216	68.6842	-5.64256	49.9725	44.8326	-28.1382	29.0561	33.4478	-53.2507	21.6641	117.845	-44.94	1.28806	113.889	-49.9598	-26.5935	110.378	-61.5887	-53.1986	97.6605	-72.8836	9.58285	61.997	-74.3685	2.38173	44.081	-53.1072	35.5986	82.0733	-87.0615	28.8476	51.7632	-82.4542	30.645	45.1745	-54.6271	52.1179	79.5001	-93.9519	47.4188	51.3529	-79.3548	49.7321	54.2019	-51.3465	67.4807	128.574	-68.6914	71.5007	139.51	-48.9142	100.995	136.294	-29.0281	65.7483	
237	1.975	103.919	-0.178029	65.5678	69.964	-6.69139	46.196	47.828	-27.6193	27.1652	37.0143	-53.0353	20.8109	123.764	-43.8615	2.36714	120.298	-52.6087	-23.3636	118.59	-64.8691	-53.3062	101.433	-74.2812	6.44487	64.5015	-75.0603	2.1668	47.3067	-52.7742	31.5144	85.0434	-86.5214	25.3999	56.8143	-79.4295	26.4865	47.0777	-55.3449	51.0272	83.4283	-94.4803	47.4851	51.5229	-80.6789	49.7103	56.2635	-53.2916	64.5665	133.93	-65.832	68.0826	143.048	-49.513	97.9752	141.831	-27.6605	67.7214	
238	1.98333	103.449	1.2083	72.3238	69.6969	-8.92033	52.2504	43.2238	-25.3484	31.1917	32.6151	-50.7565	24.0158	120.874	-40.8101	1.89816	116.981	-42.607	-24.7896	112.156	-55.0312	-51.4009	101.247	-70.0277	7.5674	61.7884	-73.3703	5.14417	45.8019	-54.1704	30.983	86.4002	-83.1235	25.8671	55.1566	-79.2478	29.1017	47.1823	-51.3812	56.7338	82.5763	-94.4631	48.8878	54.5385	-79.9571	48.3259	52.5145	-51.3409	64.9969	135.047	-62.9895	69.0074	142.59	-51.1303	100.936	140.905	-25.4705	66.3543	
239	1.99167	96.9818	2.75964	72.952	65.396	-7.44808	60.5498	37.6747	-24.451	42.4863	27.7531	-52.906	31.2495	111.678	-29.1942	2.65373	104.536	-36.2678	-23.0399	96.1848	-45.3029	-50.2464	94.8528	-64.365	9.25047	58.7899	-71.5447	6.85938	39.6872	-50.0497	36.4389	80.1608	-81.0942	27.6058	49.6961	-75.6033	35.046	42.718	-51.8481	62.8974	83.6318	-91.566	51.5958	53.4955	-78.7019	52.7056	49.6975	-52.0001	74.7316	130.128	-59.6995	64.7328	143.068	-46.2966	94.9075	136.986	-21.2751	69.3689	
240	2	94.0132	1.37763	81.1902	55.6309	-6.03264	67.7118	31.2488	-24.1796	54.3309	17.0178	-48.021	44.1587	98.3336	-28.0881	3.2861	86.5699	-33.3034	-22.6351	74.0079	-37.9799	-43.2256	84.0189	-60.8716	11.995	49.7475	-65.7498	12.7925	31.9689	-48.6684	47.6074	75.6824	-76.1027	32.2166	44.2906	-72.7631	41.4817	37.1809	-53.1913	66.3516	76.9358	-90.9625	52.6592	49.2884	-77.9684	59.6334	49.1423	-53.6634	80.0038	129.612	-57.6975	68.0234	145.964	-45.2205	97.6575	132.869	-18.3106	67.2933	
241	2.00833	88.3857	3.48921	85.6669	49.3481	-8.32327	77.45	24.7671	-27.8521	64.6815	14.3272	-53.3986	55.3673	83.2203	-21.9186	9.66151	68.9531	-26.6754	-12.4749	51.208	-32.3003	-34.0661	74.3569	-54.8152	16.8318	39.2728	-62.7659	21.2318	27.8996	-57.615	58.4139	69.8427	-74.054	36.3776	39.4432	-74.3584	50.8549	35.5113	-58.3775	79.6965	77.1987	-87.4032	56.6775	47.4979	-78.5441	69.2474	50.2989	-52.5452	92.44	127.236	-51.4923	65.0549	142.502	-38.1986	93.0874	125.778	-13.8289	66.5003	
242	2.01667	82.5418	3.75988	90.4688	48.2783	-11.2786	87.6861	17.4085	-29.123	78.321	9.18442	-53.0087	71.22	70.4413	-15.9223	17.3314	51.3272	-23.5233	-4.05542	32.5184	-33.739	-23.1135	65.4568	-53.7933	23.6859	29.0077	-62.922	33.5552	23.5499	-60.1999	69.7877	66.2519	-73.0431	42.7804	36.0023	-75.3593	58.3792	36.2096	-59.1104	92.9304	75.9969	-86.7175	61.2086	45.4028	-78.9916	80.4042	51.2462	-51.9762	99.9504	118.953	-47.1891	62.7366	142.016	-35.3178	90.5559	120.309	-8.02722	71.0012	
243	2.025	80.7778	6.98237	97.4195	44.5327	-9.75519	95.8966	16.6841	-31.8368	86.7718	3.5052	-55.2149	79.8928	57.6749	-20.4252	18.1187	38.1299	-24.547	3.3493	18.6141	-34.0951	-13.3984	59.9634	-54.4496	29.58	26.3855	-68.5788	40.5692	21.5062	-60.6057	80.5622	59.1976	-72.8565	47.1506	34.0352	-76.2822	64.9984	34.4082	-60.4111	96.0281	71.6309	-83.8181	64.4145	45.2187	-78.028	85.3648	53.5161	-56.1221	102.275	116.918	-49.7912	62.1669	138.24	-33.5513	87.5312	114.546	-6.18276	68.873	
244	2.03333	80.3054	6.01095	99.0009	44.4529	-12.3887	97.166	14.2498	-34.4269	89.6208	3.07155	-57.53	83.8125	54.1959	-23.7248	22.4306	32.5897	-28.8616	5.77942	10.8785	-38.2255	-10.9884	54.928	-53.5855	30.8052	24.314	-70.3108	46.7341	22.6949	-59.3367	86.182	57.6843	-76.7307	49.2365	34.4025	-82.1869	69.8381	37.29	-59.2603	102.478	70.9066	-87.6767	66.8926	45.247	-79.864	88.0301	57.3104	-54.0811	107.68	116.539	-45.3058	62.2137	137.63	-33.2299	86.6303	109.633	-7.57329	65.9249	
245	2.04167	81.2102	5.56052	95.7409	44.4114	-11.5467	93.5017	18.1855	-31.4531	87.9322	7.0699	-57.9179	81.6409	57.9851	-24.1422	21.5001	36.6889	-27.7262	4.62689	15.2708	-42.1974	-15.1537	55.4079	-59.0739	28.5326	25.0412	-70.3284	43.718	21.861	-60.566	81.5493	59.2937	-79.2271	48.9513	32.7788	-79.1643	69.3725	37.77	-62.6217	98.207	67.5046	-90.3441	67.094	45.6554	-80.5219	86.7699	55.4728	-54.8351	103.827	114.085	-50.0653	60.3141	138.706	-33.7484	85.8825	111.864	-8.22179	67.429	
